<svg xmlns="http://www.w3.org/2000/svg" id="graph" width="2907.6314086914062" height="2024.6736145019531"><script type="application/json"><![CDATA[{
  "name": "SystemContext",
  "description": "An example of a System Context diagram.",
  "elements": [
    {
      "id": "14fm4f4",
      "tags": "Element,Software System,system4"
    },
    {
      "id": "14plq43",
      "tags": "Element,Software System,system5"
    },
    {
      "id": "14zlbt2",
      "tags": "Element,Software System,system6"
    },
    {
      "id": "159kxi1",
      "tags": "Element,Software System,system7"
    },
    {
      "id": "15tk4vz",
      "tags": "Element,Software System,system1",
      "elementViewKey": "SystemContext"
    },
    {
      "id": "163jqky",
      "tags": "Element,Software System,system2"
    },
    {
      "id": "16djc9x",
      "tags": "Element,Software System,system3"
    },
    {
      "id": "17rhcqs",
      "tags": "Element,Software System,system8"
    },
    {
      "id": "181gyfr",
      "tags": "Element,Software System,system9"
    },
    {
      "id": "1mf4fhg",
      "tags": "Element,Software System,system13"
    },
    {
      "id": "1mp416f",
      "tags": "Element,Software System,system12"
    },
    {
      "id": "1mz3mve",
      "tags": "Element,Software System,system11"
    },
    {
      "id": "1n938kd",
      "tags": "Element,Software System,system10"
    },
    {
      "id": "1qbyk9e",
      "tags": "Element,Person,person"
    }
  ]
}]]></script>
<defs>
	<marker id="arrow" viewBox="0 0 5 5" refX="4" refY="2.5" markerWidth="5" markerHeight="5" orient="auto" markerUnits="strokeWidth">
		<path fill="#aaa" stroke-width="1" stroke="none" d="M0,0 L5,2.5 L0,5 Z" class="arrowHead"></path>
	</marker>
	<g id="icon-circle" transform="translate(0,-12)" class="icon">
		<circle cx="7" cy="7" r="7"></circle>
	</g>
	<g id="icon-cube" transform="translate(0, -14)" class="icon">
		<path d="M 5 0 h 10 v 10 l -5 5 h -10 v -10 l 5 -5 M 0 5 h 10 v 10 M 15 0 l -5 5"></path>
	</g>
</defs><g class="zoom" transform="scale(1)"><g class="groups"></g><g class="edges"><g class="edge" id="1505d41" data-from="1qbyk9e" data-to="1n938kd"><rect x="1325.3288872863402" y="1361.8480027087646" rx="0" ry="0" width="72.53125" height="37" fill="none" stroke="none"></rect><text x="0" y="1361.8480027087646" text-anchor="middle" stroke="none" font-size="22" fill="#999" data-field="label"><tspan x="1361.5945122863402" dy="24px" font-size="22px" font-weight="normal">Uses</tspan></text><path marker-end="url(#arrow)" class="edge" d="M1461.7552588027909,1093.5224778579359 L1368.0547944091325,1361.8480027087646 M1355.134230163548,1398.8480027087646 L1274.528932235009,1629.6735275595934" stroke="#999" stroke-width="3"></path></g><g class="edge" id="18lywmm" data-from="1qbyk9e" data-to="17rhcqs"><rect x="1947.3699511650289" y="1363.9319771269356" rx="0" ry="0" width="72.53125" height="37" fill="none" stroke="none"></rect><text x="0" y="1363.9319771269356" text-anchor="middle" stroke="none" font-size="22" fill="#999" data-field="label"><tspan x="1983.6355761650289" dy="24px" font-size="22px" font-weight="normal">Uses</tspan></text><path marker-end="url(#arrow)" class="edge" d="M1664.1359246632694,1083.7492590275556 L1963.8462037152447,1363.9319771269356 M2003.0924729537521,1400.9319771269356 L2303.135227666788,1686.218527313514" stroke="#999" stroke-width="3"></path></g><g class="edge" id="18rrq83" data-from="1qbyk9e" data-to="1mp416f"><rect x="885.9004247586373" y="1091.687140766994" rx="0" ry="0" width="72.53125" height="37" fill="none" stroke="none"></rect><text x="0" y="1091.687140766994" text-anchor="middle" stroke="none" font-size="22" fill="#999" data-field="label"><tspan x="922.1660497586373" dy="24px" font-size="22px" font-weight="normal">Uses</tspan></text><path marker-end="url(#arrow)" class="edge" d="M1364.1359246632694,985.7538489059747 L958.4316747586373,1099.9768269959004 M885.9004247586373,1120.3974545380875 L480.1961748540052,1234.620432628013" stroke="#999" stroke-width="3"></path></g><g class="edge" id="1h31fng" data-from="1qbyk9e" data-to="163jqky"><rect x="1244.29421190707" y="574.0403876208624" rx="0" ry="0" width="72.53125" height="37" fill="none" stroke="none"></rect><text x="0" y="574.0403876208624" text-anchor="middle" stroke="none" font-size="22" fill="#999" data-field="label"><tspan x="1280.55983690707" dy="24px" font-size="22px" font-weight="normal">Uses</tspan></text><path marker-end="url(#arrow)" class="edge" d="M1414.3119902289957,793.5224778579358 L1292.871455487297,611.0403876208624 M1268.2482183268428,574.0403876208624 L1130.0872762474726,366.4334501729019" stroke="#999" stroke-width="3"></path></g><g class="edge" id="1o335n5" data-from="1qbyk9e" data-to="16djc9x"><rect x="1473.1963960418461" y="575.8604315672867" rx="0" ry="0" width="72.53125" height="37" fill="none" stroke="none"></rect><text x="0" y="575.8604315672867" text-anchor="middle" stroke="none" font-size="22" fill="#999" data-field="label"><tspan x="1509.4620210418461" dy="24px" font-size="22px" font-weight="normal">Uses</tspan></text><path marker-end="url(#arrow)" class="edge" d="M1512.1280158694542,793.5224778579358 L1509.7096631264167,612.8604315672867 M1509.2143789572756,575.8604315672867 L1506.7959997028875,395.19640475712094" stroke="#999" stroke-width="3"></path></g><g class="edge" id="1s5r3me" data-from="1qbyk9e" data-to="1mf4fhg"><rect x="885.3804867568995" y="835.7927688506038" rx="0" ry="0" width="72.53125" height="37" fill="none" stroke="none"></rect><text x="0" y="835.7927688506038" text-anchor="middle" stroke="none" font-size="22" fill="#999" data-field="label"><tspan x="921.6461117568995" dy="24px" font-size="22px" font-weight="normal">Uses</tspan></text><path marker-end="url(#arrow)" class="edge" d="M1364.1359246632694,920.9322897069458 L957.9117367568995,859.7544174650254 M885.3804867568995,848.8311202361822 L479.1562988505294,787.6532479942618" stroke="#999" stroke-width="3"></path></g><g class="edge" id="1wwspdn" data-from="1qbyk9e" data-to="181gyfr"><rect x="1639.00676250172" y="1361.2901279404043" rx="0" ry="0" width="72.53125" height="37" fill="none" stroke="none"></rect><text x="0" y="1361.2901279404043" text-anchor="middle" stroke="none" font-size="22" fill="#999" data-field="label"><tspan x="1675.27238750172" dy="24px" font-size="22px" font-weight="normal">Uses</tspan></text><path marker-end="url(#arrow)" class="edge" d="M1569.5387706482938,1093.5224778579359 L1668.4393698302335,1361.2901279404043 M1682.1054051732065,1398.2901279404043 L1781.0060043551462,1666.057778022873" stroke="#999" stroke-width="3"></path></g><g class="edge" id="1xw8foz" data-from="1qbyk9e" data-to="15tk4vz"><rect x="1008.2169184381969" y="572.1152571481566" rx="0" ry="0" width="72.53125" height="37" fill="none" stroke="none"></rect><text x="0" y="572.1152571481566" text-anchor="middle" stroke="none" font-size="22" fill="#999" data-field="label"><tspan x="1044.482543438197" dy="24px" font-size="22px" font-weight="normal">Uses</tspan></text><path marker-end="url(#arrow)" class="edge" d="M1364.1359246632694,830.8093893917458 L1069.1025768146437,609.1152571481566 M1019.8625100617501,572.1152571481566 L724.8291622131244,350.42112490456753" stroke="#999" stroke-width="3"></path></g><g class="edge" id="9sun3r" data-from="1qbyk9e" data-to="14plq43"><rect x="1958.972303446331" y="575.5603452253137" rx="0" ry="0" width="72.53125" height="37" fill="none" stroke="none"></rect><text x="0" y="575.5603452253137" text-anchor="middle" stroke="none" font-size="22" fill="#999" data-field="label"><tspan x="1995.237928446331" dy="24px" font-size="22px" font-weight="normal">Uses</tspan></text><path marker-end="url(#arrow)" class="edge" d="M1664.1359246632694,834.5657088511489 L1969.769111544949,612.5603452253137 M2020.7067453477127,575.5603452253137 L2354.977915235643,332.75296760459605" stroke="#999" stroke-width="3"></path></g><g class="edge" id="e6qky2" data-from="1qbyk9e" data-to="14fm4f4"><rect x="1722.4697632808757" y="574.191907332696" rx="0" ry="0" width="72.53125" height="37" fill="none" stroke="none"></rect><text x="0" y="574.191907332696" text-anchor="middle" stroke="none" font-size="22" fill="#999" data-field="label"><tspan x="1758.7353882808757" dy="24px" font-size="22px" font-weight="normal">Uses</tspan></text><path marker-end="url(#arrow)" class="edge" d="M1618.7160913451844,793.5224778579358 L1745.8371677234395,611.191907332696 M1771.6336088383118,574.191907332696 L1921.5790520257785,359.1242019375635" stroke="#999" stroke-width="3"></path></g><g class="edge" id="mhtp8g" data-from="1qbyk9e" data-to="14zlbt2"><rect x="2089.1535769701904" y="850.1872589651773" rx="0" ry="0" width="72.53125" height="37" fill="none" stroke="none"></rect><text x="0" y="850.1872589651773" text-anchor="middle" stroke="none" font-size="22" fill="#999" data-field="label"><tspan x="2125.4192019701904" dy="24px" font-size="22px" font-weight="normal">Uses</tspan></text><path marker-end="url(#arrow)" class="edge" d="M1664.1359246632694,925.1590066971213 L2089.1535769701904,873.1270106906201 M2161.6848269701904,864.2475072397345 L2586.7024792771113,812.2155112332333" stroke="#999" stroke-width="3"></path></g><g class="edge" id="rscu6k" data-from="1qbyk9e" data-to="1mz3mve"><rect x="994.6850204080738" y="1362.2716847112736" rx="0" ry="0" width="72.53125" height="37" fill="none" stroke="none"></rect><text x="0" y="1362.2716847112736" text-anchor="middle" stroke="none" font-size="22" fill="#999" data-field="label"><tspan x="1030.9506454080738" dy="24px" font-size="22px" font-weight="normal">Uses</tspan></text><path marker-end="url(#arrow)" class="edge" d="M1364.1359246632694,1079.26208716288 L1051.394199166696,1362.2716847112736 M1009.5718186700813,1399.2716847112736 L697.7653661528784,1669.0909522633667" stroke="#999" stroke-width="3"></path></g><g class="edge" id="vk6jwl" data-from="1qbyk9e" data-to="159kxi1"><rect x="2089.617999763189" y="1114.9015596893767" rx="0" ry="0" width="72.53125" height="37" fill="none" stroke="none"></rect><text x="0" y="1114.9015596893767" text-anchor="middle" stroke="none" font-size="22" fill="#999" data-field="label"><tspan x="2125.883624763189" dy="24px" font-size="22px" font-weight="normal">Uses</tspan></text><path marker-end="url(#arrow)" class="edge" d="M1664.1359246632694,990.0806623350725 L2089.617999763189,1122.1451486298522 M2162.149249763189,1144.9409147231545 L2557.631324863108,1270.7793105614492" stroke="#999" stroke-width="3"></path></g></g><g class="nodes"><g class="node" id="14fm4f4" transform="translate(2003.3348518984822,241.86133680745627)"><ellipse cx="0" cy="0" rx="165" ry="135" width="300" height="300" class="nodeBorder" fill="#f0f7ff" stroke="#999" stroke-width="3px" opacity="0.9"></ellipse><g transform="translate(0,-58)"><text x="0" y="0" text-anchor="middle" font-family="Arial, sans-serif" stroke="none" fill="#666" data-field="name"><tspan x="0" dy="24px" font-size="22px" font-weight="bold">System 4</tspan></text><text x="0" y="48" text-anchor="middle" font-family="Arial, sans-serif" stroke="none" fill="#666" font-size="16.5">[system4]</text><text x="0" y="68" text-anchor="middle" font-family="Arial, sans-serif" stroke="none" fill="#666" data-field="description"><tspan x="0" dy="24px" font-size="22px" font-weight="normal">Shape: "Ellipse".</tspan></text></g></g><g class="node" id="14plq43" transform="translate(2476.3399322293926,244.59821259269154)"><polygon points="75,129.9,150,0,75,-129.9,-75,-129.9,-150,0,-75,129.9,75,129.9" width="300" height="300" class="nodeBorder" fill="#f0f7ff" stroke="#999" stroke-width="3px" opacity="0.9"></polygon><g transform="translate(0,-58)"><text x="0" y="0" text-anchor="middle" font-family="Arial, sans-serif" stroke="none" fill="#666" data-field="name"><tspan x="0" dy="24px" font-size="22px" font-weight="bold">System 5</tspan></text><text x="0" y="48" text-anchor="middle" font-family="Arial, sans-serif" stroke="none" fill="#666" font-size="16.5">[system5]</text><text x="0" y="68" text-anchor="middle" font-family="Arial, sans-serif" stroke="none" fill="#666" data-field="description"><tspan x="0" dy="24px" font-size="22px" font-weight="normal">Shape: "Hexagon".</tspan></text></g></g><g class="node" id="14zlbt2" transform="translate(2736.7024792771113,793.852040072419)"><rect rx="37.5" ry="37.5" x="-150" y="-150" width="300" height="300" class="nodeBorder" fill="#f0f7ff" stroke="#999" stroke-width="3px" opacity="0.9"></rect><g transform="translate(0,-58)"><text x="0" y="0" text-anchor="middle" font-family="Arial, sans-serif" stroke="none" fill="#666" data-field="name"><tspan x="0" dy="24px" font-size="22px" font-weight="bold">System 6</tspan></text><text x="0" y="48" text-anchor="middle" font-family="Arial, sans-serif" stroke="none" fill="#666" font-size="16.5">[system6]</text><text x="0" y="68" text-anchor="middle" font-family="Arial, sans-serif" stroke="none" fill="#666" data-field="description"><tspan x="0" dy="24px" font-size="22px" font-weight="normal">Shape: "RoundedBox".</tspan></text></g></g><g class="node" id="159kxi1" transform="translate(2737.631324863108,1323.2806415208174)"><g class="nodeBorder" fill="#f0f7ff" stroke="#999" stroke-width="3px" opacity="0.9"><rect rx="3" ry="3" x="-150" y="-150" width="300" height="300"></rect><rect rx="3" ry="3" x="-180" y="-75" width="60" height="30"></rect><rect rx="3" ry="3" x="-180" y="-120" width="60" height="30"></rect></g><g transform="translate(0,-58)"><text x="0" y="0" text-anchor="middle" font-family="Arial, sans-serif" stroke="none" fill="#666" data-field="name"><tspan x="0" dy="24px" font-size="22px" font-weight="bold">System 7</tspan></text><text x="0" y="48" text-anchor="middle" font-family="Arial, sans-serif" stroke="none" fill="#666" font-size="16.5">[system7]</text><text x="0" y="68" text-anchor="middle" font-family="Arial, sans-serif" stroke="none" fill="#666" data-field="description"><tspan x="0" dy="24px" font-size="22px" font-weight="normal">Shape: "Component".</tspan></text></g></g><g class="node" id="15tk4vz" transform="translate(574.8291622131244,237.70803643837752)"><rect rx="3" ry="3" x="-150" y="-150" width="300" height="300" class="nodeBorder" fill="#f0f7ff" stroke="#999" stroke-width="3px" opacity="0.9"></rect><g transform="translate(0,-58)"><text x="0" y="0" text-anchor="middle" font-family="Arial, sans-serif" stroke="none" fill="#666" data-field="name"><tspan x="0" dy="24px" font-size="22px" font-weight="bold">System 1</tspan></text><text x="0" y="48" text-anchor="middle" font-family="Arial, sans-serif" stroke="none" fill="#666" font-size="16.5">[system1]</text><text x="0" y="68" text-anchor="middle" font-family="Arial, sans-serif" stroke="none" fill="#666" data-field="description"><tspan x="0" dy="24px" font-size="22px" font-weight="normal">Shape: "Box".</tspan></text></g></g><g class="node" id="163jqky" transform="translate(1046.9837491508706,241.5582973837889)"><ellipse cx="0" cy="0" rx="150" ry="150" width="300" height="300" class="nodeBorder" fill="#f0f7ff" stroke="#999" stroke-width="3px" opacity="0.9"></ellipse><g transform="translate(0,-58)"><text x="0" y="0" text-anchor="middle" font-family="Arial, sans-serif" stroke="none" fill="#666" data-field="name"><tspan x="0" dy="24px" font-size="22px" font-weight="bold">System 2</tspan></text><text x="0" y="48" text-anchor="middle" font-family="Arial, sans-serif" stroke="none" fill="#666" font-size="16.5">[system2]</text><text x="0" y="68" text-anchor="middle" font-family="Arial, sans-serif" stroke="none" fill="#666" data-field="description"><tspan x="0" dy="24px" font-size="22px" font-weight="normal">Shape: "Circle".</tspan></text></g></g><g class="node" id="16djc9x" transform="translate(1504.7881174204226,245.19838527663768)" label-offset-y="44.21052631578947"><path d="M 0,22.105263157894736 a150,22.105263157894736 0,0,0 300 0 a 150,22.105263157894736 0,0,0 -300 0 l 0,255.78947368421052 a 150,22.105263157894736 0,0,0 300 0 l 0,-255.78947368421052" transform="translate(-150,-150)" class="nodeBorder" fill="#f0f7ff" stroke="#999" stroke-width="3px" opacity="0.9"></path><g transform="translate(0,-80.10526315789474)"><text x="0" y="44.21052631578947" text-anchor="middle" font-family="Arial, sans-serif" stroke="none" fill="#666" data-field="name"><tspan x="0" dy="24px" font-size="22px" font-weight="bold">System 3</tspan></text><text x="0" y="92.21052631578948" text-anchor="middle" font-family="Arial, sans-serif" stroke="none" fill="#666" font-size="16.5">[system3]</text><text x="0" y="112.21052631578948" text-anchor="middle" font-family="Arial, sans-serif" stroke="none" fill="#666" data-field="description"><tspan x="0" dy="24px" font-size="22px" font-weight="normal">Shape: "Cylinder".</tspan></text></g></g><g class="node" id="17rhcqs" transform="translate(2453.135227666788,1821.3414763959354)" label-offset-y="30"><g class="nodeBorder" fill="#f0f7ff" stroke="#999" stroke-width="3px" opacity="0.9"><path d="M0,-120 l15,-30 h120 v30"></path><rect rx="3" ry="3" x="-150" y="-120" width="300" height="270"></rect></g><g transform="translate(0,-73)"><text x="0" y="30" text-anchor="middle" font-family="Arial, sans-serif" stroke="none" fill="#666" data-field="name"><tspan x="0" dy="24px" font-size="22px" font-weight="bold">System 8</tspan></text><text x="0" y="78" text-anchor="middle" font-family="Arial, sans-serif" stroke="none" fill="#666" font-size="16.5">[system8]</text><text x="0" y="98" text-anchor="middle" font-family="Arial, sans-serif" stroke="none" fill="#666" data-field="description"><tspan x="0" dy="24px" font-size="22px" font-weight="normal">Shape: "Folder".</tspan></text></g></g><g class="node" id="181gyfr" transform="translate(1836.4088503401708,1816.057778022873)"><g class="nodeBorder" fill="#f0f7ff" stroke="#999" stroke-width="3px" opacity="0.9"><rect rx="21.428571428571427" ry="21.428571428571427" x="-187.5" y="-150" width="375" height="300"></rect><rect x="164.46428571428572" y="-21.428571428571427" width="8.571428571428571" height="42.857142857142854"></rect><circle cx="-168.75" cy="0" r="8.571428571428571"></circle><path d="M-150,-150 l0,300 M150,-150 l0,300"></path></g><g transform="translate(0,-70)"><text x="0" y="0" text-anchor="middle" font-family="Arial, sans-serif" stroke="none" fill="#666" data-field="name"><tspan x="0" dy="24px" font-size="22px" font-weight="bold">System 9</tspan></text><text x="0" y="48" text-anchor="middle" font-family="Arial, sans-serif" stroke="none" fill="#666" font-size="16.5">[system9]</text><text x="0" y="68" text-anchor="middle" font-family="Arial, sans-serif" stroke="none" fill="#666" data-field="description"><tspan x="0" dy="24px" font-size="22px" font-weight="normal">Shape:</tspan><tspan x="0" dy="24px" font-size="22px" font-weight="normal">"MobileDeviceLandscape".</tspan></text></g></g><g class="node" id="1mf4fhg" transform="translate(329.1562988505294,765.0630598432717)" label-offset-y="37.5"><g class="nodeBorder" fill="#f0f7ff" stroke="#999" stroke-width="3px" opacity="0.9"><rect rx="3" ry="3" x="-150" y="-150" width="300" height="300"></rect><path d="
			M-150,-112.5 h300
			M-140.625,-140.625 h18.75 v18.75 h-18.75 z
			M-112.5,-140.625 h253.125 v18.75 h-253.125 z
		"></path></g><g transform="translate(0,-76.75)"><text x="0" y="37.5" text-anchor="middle" font-family="Arial, sans-serif" stroke="none" fill="#666" data-field="name"><tspan x="0" dy="24px" font-size="22px" font-weight="bold">System 13</tspan></text><text x="0" y="85.5" text-anchor="middle" font-family="Arial, sans-serif" stroke="none" fill="#666" font-size="16.5">[system13]</text><text x="0" y="105.5" text-anchor="middle" font-family="Arial, sans-serif" stroke="none" fill="#666" data-field="description"><tspan x="0" dy="24px" font-size="22px" font-weight="normal">Shape: "WebBrowser".</tspan></text></g></g><g class="node" id="1mp416f" transform="translate(330.1961748540052,1276.851803676052)" label-offset-y="135"><g transform="translate(0,33.75)" class="nodeBorder" fill="#f0f7ff" stroke="#999" stroke-width="3px" opacity="0.9"><rect rx="18.75" ry="18.75" x="-150" y="-101.25" width="300" height="251.25"></rect><path d="
			M-67.5,-140.625 h-20 v-40 h20
			M67.5,-140.625 h20 v-40 h-20
		"></path><rect rx="18.75" ry="18.75" x="-67.5" y="-217.5" width="135" height="135"></rect></g><g transform="translate(0,-125.5)"><text x="0" y="135" text-anchor="middle" font-family="Arial, sans-serif" stroke="none" fill="#666" data-field="name"><tspan x="0" dy="24px" font-size="22px" font-weight="bold">System 12</tspan></text><text x="0" y="183" text-anchor="middle" font-family="Arial, sans-serif" stroke="none" fill="#666" font-size="16.5">[system12]</text><text x="0" y="203" text-anchor="middle" font-family="Arial, sans-serif" stroke="none" fill="#666" data-field="description"><tspan x="0" dy="24px" font-size="22px" font-weight="normal">Shape: "Robot".</tspan></text></g></g><g class="node" id="1mz3mve" transform="translate(547.7653661528783,1818.0208915646112)"><path d="M-22.105263157894736,0
		a22.105263157894736,150 0,0,1 0,300
		a22.105263157894736,150 0,0,1 0,-300
		l300,0
		a22.105263157894736,150 0,0,1 0,300
		l-300,0" transform="translate(-150,-150)" class="nodeBorder" fill="#f0f7ff" stroke="#999" stroke-width="3px" opacity="0.9"></path><g transform="translate(0,-58)"><text x="0" y="0" text-anchor="middle" font-family="Arial, sans-serif" stroke="none" fill="#666" data-field="name"><tspan x="0" dy="24px" font-size="22px" font-weight="bold">System 11</tspan></text><text x="0" y="48" text-anchor="middle" font-family="Arial, sans-serif" stroke="none" fill="#666" font-size="16.5">[system11]</text><text x="0" y="68" text-anchor="middle" font-family="Arial, sans-serif" stroke="none" fill="#666" data-field="description"><tspan x="0" dy="24px" font-size="22px" font-weight="normal">Shape: "Pipe".</tspan></text></g></g><g class="node" id="1n938kd" transform="translate(1209.053099909411,1817.1735275595934)"><g class="nodeBorder" fill="#f0f7ff" stroke="#999" stroke-width="3px" opacity="0.9"><rect rx="21.428571428571427" ry="21.428571428571427" x="-150" y="-187.5" width="300" height="375"></rect><rect x="-21.428571428571427" y="-173.03571428571428" width="42.857142857142854" height="8.571428571428571"></rect><circle cx="0" cy="168.75" r="8.571428571428571"></circle><path d="M-150,-150 l300,0 M-150,150 l300,0"></path></g><g transform="translate(0,-70)"><text x="0" y="0" text-anchor="middle" font-family="Arial, sans-serif" stroke="none" fill="#666" data-field="name"><tspan x="0" dy="24px" font-size="22px" font-weight="bold">System 10</tspan></text><text x="0" y="48" text-anchor="middle" font-family="Arial, sans-serif" stroke="none" fill="#666" font-size="16.5">[system10]</text><text x="0" y="68" text-anchor="middle" font-family="Arial, sans-serif" stroke="none" fill="#666" data-field="description"><tspan x="0" dy="24px" font-size="22px" font-weight="normal">Shape:</tspan><tspan x="0" dy="24px" font-size="22px" font-weight="normal">"MobileDevicePortrait".</tspan></text></g></g><g class="node" id="1qbyk9e" transform="translate(1514.1359246632694,943.5224778579358)" label-offset-y="120"><path d="M 114,100 A150,150 0,0,0 0 150
		L27.272727272727273,300 L272.72727272727275,300 L300,150
		A150,150 0,0,0 186 100 
		A50,50 0,1,0 114 100" transform="translate(-150,-150)" class="nodeBorder" fill="#f0f7ff" stroke="#999" stroke-width="3px" opacity="0.9"></path><g transform="translate(0,-118)"><text x="0" y="120" text-anchor="middle" font-family="Arial, sans-serif" stroke="none" fill="#666" data-field="name"><tspan x="0" dy="24px" font-size="22px" font-weight="bold">User</tspan></text><text x="0" y="168" text-anchor="middle" font-family="Arial, sans-serif" stroke="none" fill="#666" font-size="16.5">[person]</text><text x="0" y="188" text-anchor="middle" font-family="Arial, sans-serif" stroke="none" fill="#666" data-field="description"><tspan x="0" dy="24px" font-size="22px" font-weight="normal">A person using shapes.</tspan></text></g></g></g></g></svg>