<svg xmlns="http://www.w3.org/2000/svg" id="graph" width="1667" height="1328.7630157470703"><script type="application/json"><![CDATA[{
  "name": "SystemContext",
  "description": "System Context diagram.",
  "elements": [
    {
      "id": "fphk5f",
      "tags": "Element,Person,person"
    },
    {
      "id": "fzh5ue",
      "tags": "Element,Person,person"
    },
    {
      "id": "g9grjd",
      "tags": "Element,Person"
    },
    {
      "id": "ucih59",
      "tags": "Element,Software System",
      "elementViewKey": "SystemContext"
    }
  ]
}]]></script>
<defs>
	<marker id="arrow" viewBox="0 0 5 5" refX="4" refY="2.5" markerWidth="5" markerHeight="5" orient="auto" markerUnits="strokeWidth">
		<path fill="#aaa" stroke-width="1" stroke="none" d="M0,0 L5,2.5 L0,5 Z" class="arrowHead"></path>
	</marker>
	<g id="icon-circle" transform="translate(0,-12)" class="icon">
		<circle cx="7" cy="7" r="7"></circle>
	</g>
	<g id="icon-cube" transform="translate(0, -14)" class="icon">
		<path d="M 5 0 h 10 v 10 l -5 5 h -10 v -10 l 5 -5 M 0 5 h 10 v 10 M 15 0 l -5 5"></path>
	</g>
</defs><g class="zoom" transform="scale(1)"><g class="groups"></g><g class="edges"><g class="edge" id="1vx4bg9" data-from="fphk5f" data-to="ucih59"><rect x="227.578125" y="458.44213820136883" rx="0" ry="0" width="144.84375" height="61" fill="none" stroke="none"></rect><text x="0" y="458.44213820136883" text-anchor="middle" stroke="none" font-size="22" fill="#999" data-field="label"><tspan x="300" dy="24px" font-size="22px" font-weight="normal">Edge</tspan><tspan x="300" dy="24px" font-size="22px" font-weight="normal">with vertices</tspan></text><path marker-end="url(#arrow)" class="edge" d="M509.78658271507777,269.1954828851498 L300,300 M300,300 L300,458.44213820136883 M300,519.4421382013688 L300,800 M300,800 L501.8804086997863,1008.7630678895812" fill="none" stroke="#999" stroke-width="3" stroke-dasharray="8"></path><circle id="v-1vx4bg9-0" cx="300" cy="300" r="7" class="v-dot"></circle><circle id="v-1vx4bg9-1" cx="300" cy="800" r="7" class="v-dot"></circle></g><g class="edge" id="o7eyjl" data-from="fzh5ue" data-to="ucih59"><rect x="494.71151931295833" y="871.7349980189331" rx="0" ry="0" width="109.0625" height="37" fill="none" stroke="none"></rect><text x="0" y="871.7349980189331" text-anchor="middle" stroke="none" font-size="22" fill="#999" data-field="label"><tspan x="549.2427693129583" dy="24px" font-size="22px" font-weight="normal">Writes to</tspan></text><path marker-end="url(#arrow)" class="edge" d="M594.4012929108809,771.706928148285 L556.2911645789345,871.7349980189331 M555.973194271558,908.7349980189331 L592.3640817319884,1008.7630678895812" fill="none" stroke="#999" stroke-width="3" stroke-dasharray="8"></path><circle id="v-2zoe4ep" cx="549.2427693129583" cy="890.2349980189331" r="7" class="v-dot auto"></circle></g><g class="edge" id="19x799c" data-from="g9grjd" data-to="ucih59"><rect x="983.8363079364749" y="994.7263006248044" rx="0" ry="0" width="185.796875" height="37" fill="none" stroke="none"></rect><text x="0" y="994.7263006248044" text-anchor="middle" stroke="none" font-size="22" fill="#999" data-field="label"><tspan x="1076.734745436475" dy="24px" font-size="22px" font-weight="normal">Solid Orthogonal</tspan></text><path marker-end="url(#arrow)" class="edge" d="M1076.734745436475,587.8898828333764 L1076.734745436475,994.7263006248044 M1076.734745436475,1031.7263006248045 L1076.734745436475,1158.7630678895812 M1076.734745436475,1158.7630678895812 L796.9350949098238,1158.7630678895812" fill="none" stroke="#999" stroke-width="3"></path><circle id="v-4gun14o" cx="1076.734745436475" cy="1158.7630678895812" r="7" class="v-dot auto"></circle></g><g class="edge" id="zytrhj" data-from="fzh5ue" data-to="ucih59"><rect x="681.4224568129583" y="871.7349980189331" rx="0" ry="0" width="135.640625" height="37" fill="none" stroke="none"></rect><text x="0" y="871.7349980189331" text-anchor="middle" stroke="none" font-size="22" fill="#999" data-field="label"><tspan x="749.2427693129583" dy="24px" font-size="22px" font-weight="normal">Reads from</tspan></text><path marker-end="url(#arrow)" class="edge" d="M706.1214568939282,771.706928148285 L742.5123443543587,871.7349980189331 M742.1943740469821,908.7349980189331 L704.0842457150358,1008.7630678895812" fill="none" stroke="#999" stroke-width="3" stroke-dasharray="8"></path><circle id="v-1ruhdxu" cx="749.2427693129583" cy="890.2349980189331" r="7" class="v-dot auto"></circle></g></g><g class="nodes"><g class="node" id="fphk5f" transform="translate(659.7865827150778,247.16987234597093)"><rect rx="3" ry="3" x="-150" y="-150" width="300" height="300" class="nodeBorder" fill="rgba(255, 255, 255, .9)" stroke="#999" stroke-width="3px" opacity="0.9"></rect><g transform="translate(0,-70)"><text x="0" y="0" text-anchor="middle" font-family="Arial, sans-serif" stroke="none" fill="#666" data-field="name"><tspan x="0" dy="24px" font-size="22px" font-weight="bold">Person1</tspan></text><text x="0" y="48" text-anchor="middle" font-family="Arial, sans-serif" stroke="none" fill="#666" font-size="16.5">[person]</text><text x="0" y="68" text-anchor="middle" font-family="Arial, sans-serif" stroke="none" fill="#666" data-field="description"><tspan x="0" dy="24px" font-size="22px" font-weight="normal">A person using the</tspan><tspan x="0" dy="24px" font-size="22px" font-weight="normal">system.</tspan></text></g></g><g class="node" id="fzh5ue" transform="translate(651.5504437160929,621.706928148285)"><rect rx="3" ry="3" x="-150" y="-150" width="300" height="300" class="nodeBorder" fill="rgba(255, 255, 255, .9)" stroke="#999" stroke-width="3px" opacity="0.9"></rect><g transform="translate(0,-82)"><text x="0" y="0" text-anchor="middle" font-family="Arial, sans-serif" stroke="none" fill="#666" data-field="name"><tspan x="0" dy="24px" font-size="22px" font-weight="bold">Person2</tspan></text><text x="0" y="48" text-anchor="middle" font-family="Arial, sans-serif" stroke="none" fill="#666" font-size="16.5">[person]</text><text x="0" y="68" text-anchor="middle" font-family="Arial, sans-serif" stroke="none" fill="#666" data-field="description"><tspan x="0" dy="24px" font-size="22px" font-weight="normal">The intellectual.</tspan><tspan x="0" dy="24px" font-size="22px" font-weight="normal">Two relationships</tspan><tspan x="0" dy="24px" font-size="22px" font-weight="normal">automatically spread</tspan></text></g></g><g class="node" id="g9grjd" transform="translate(1076.734745436475,437.8898828333764)"><rect rx="3" ry="3" x="-150" y="-150" width="300" height="300" class="nodeBorder" fill="rgba(255, 255, 255, .9)" stroke="#999" stroke-width="3px" opacity="0.9"></rect><g transform="translate(0,-58)"><text x="0" y="0" text-anchor="middle" font-family="Arial, sans-serif" stroke="none" fill="#666" data-field="name"><tspan x="0" dy="24px" font-size="22px" font-weight="bold">Person3</tspan></text><text x="0" y="48" text-anchor="middle" font-family="Arial, sans-serif" stroke="none" fill="#666" font-size="16.5">[Person]</text><text x="0" y="68" text-anchor="middle" font-family="Arial, sans-serif" stroke="none" fill="#666" data-field="description"><tspan x="0" dy="24px" font-size="22px" font-weight="normal">Another person</tspan></text></g></g><g class="node" id="ucih59" transform="translate(646.9350949098238,1158.7630678895812)"><rect rx="3" ry="3" x="-150" y="-150" width="300" height="300" class="nodeBorder" fill="rgba(255, 255, 255, .9)" stroke="#999" stroke-width="3px" opacity="0.9"></rect><g transform="translate(0,-58)"><text x="0" y="0" text-anchor="middle" font-family="Arial, sans-serif" stroke="none" fill="#666" data-field="name"><tspan x="0" dy="24px" font-size="22px" font-weight="bold">The System</tspan></text><text x="0" y="48" text-anchor="middle" font-family="Arial, sans-serif" stroke="none" fill="#666" font-size="16.5">[Software System]</text><text x="0" y="68" text-anchor="middle" font-family="Arial, sans-serif" stroke="none" fill="#666" data-field="description"><tspan x="0" dy="24px" font-size="22px" font-weight="normal">My Software System</tspan></text></g></g></g></g></svg>